<svg xmlns="http://www.w3.org/2000/svg" viewBox="0 0 26.89 26.89" width="100px" ><defs><style>.cls-1{fill:#ee2a7b;stroke:#ee2a7b;stroke-miterlimit:10;stroke-width:0.25px;}.cls-2{fill:#fff;}</style></defs><g id="Layer_2" data-name="Layer 2"><g id="Layer_1-2" data-name="Layer 1"><circle class="cls-1" cx="13.45" cy="13.45" r="13.32"/><path class="cls-2" d="M8.87,13.45a5.25,5.25,0,0,1,.75-3,4.1,4.1,0,0,1,2.82-1.92,4.68,4.68,0,0,1,5,2.94A12.43,12.43,0,0,1,17.8,13a4.88,4.88,0,0,0,.16.66.75.75,0,0,0,.76.6.84.84,0,0,0,.79-.64,2,2,0,0,0,.1-1,7.31,7.31,0,0,0-2.06-4.33,6.49,6.49,0,0,0-4.68-1.79A8.17,8.17,0,0,0,10.53,7l-.16,0a.36.36,0,0,1-.46-.22.35.35,0,0,1,.26-.4,7.37,7.37,0,0,1,5.31-.18A6.88,6.88,0,0,1,18.94,9a8.42,8.42,0,0,1,1.19,2.81,4.86,4.86,0,0,1,.1,1.61,1.64,1.64,0,0,1-.87,1.34,1.33,1.33,0,0,1-1.48-.11,1.86,1.86,0,0,1-.66-1.24,6.19,6.19,0,0,0-1-2.65,4.09,4.09,0,0,0-2-1.36,3.35,3.35,0,0,0-3.33.58A3.83,3.83,0,0,0,9.67,12a6.2,6.2,0,0,0-.07,2.39,9.72,9.72,0,0,0,.76,2.69,12,12,0,0,0,1,1.89A5.92,5.92,0,0,0,14,21.1a1.22,1.22,0,0,1,.28.14.29.29,0,0,1,.15.35.32.32,0,0,1-.38.22.74.74,0,0,1-.21-.07,6.78,6.78,0,0,1-2.44-1.69A9.84,9.84,0,0,1,10,17.94a11.73,11.73,0,0,1-1-3.16A4.81,4.81,0,0,1,8.87,13.45Z"/><path class="cls-2" d="M11,13.47a7.36,7.36,0,0,0,.61,3,7.16,7.16,0,0,0,1.63,2.45,5.26,5.26,0,0,0,2.07,1.26c.42.14.85.24,1.28.35a.4.4,0,0,1,.32.29c0,.13,0,.21-.12.29a.4.4,0,0,1-.35.06,8.45,8.45,0,0,1-2.57-.94,7.08,7.08,0,0,1-2.28-2.37A8.52,8.52,0,0,1,10.52,15a6.44,6.44,0,0,1-.19-1.75,3.48,3.48,0,0,1,1.06-2.48,2.48,2.48,0,0,1,2.24-.62,3.31,3.31,0,0,1,2.5,2.17c.24.58.35,1.2.57,1.79a2.43,2.43,0,0,0,.39.77,1.91,1.91,0,0,0,2.43.38c.19-.11.37-.24.55-.36a.34.34,0,0,1,.5.05.32.32,0,0,1-.11.47,3.1,3.1,0,0,1-1.8.76,2.45,2.45,0,0,1-2.57-1.84c-.19-.57-.34-1.16-.54-1.72a2.63,2.63,0,0,0-1.7-1.75,2.05,2.05,0,0,0-2.64,1.3A3.25,3.25,0,0,0,11,13.47Z"/><path class="cls-2" d="M13,7.17a5.36,5.36,0,0,1,4.5,2.18,6.86,6.86,0,0,1,1.28,2.36A8.84,8.84,0,0,1,19,13.24a.37.37,0,0,1-.31.39c-.16,0-.3-.13-.33-.33A9.47,9.47,0,0,0,18.2,12a6,6,0,0,0-1.29-2.37,5.07,5.07,0,0,0-1.68-1.37,4.56,4.56,0,0,0-1.57-.41A5.66,5.66,0,0,0,10,8.7a3.68,3.68,0,0,0-1.49,2.13,8.17,8.17,0,0,0-.25,3.3,13,13,0,0,0,1.34,4.31l.13.3a.34.34,0,0,1-.12.46A.33.33,0,0,1,9.19,19c-.24-.43-.43-.89-.63-1.34a11.74,11.74,0,0,1-.93-3.42,8.46,8.46,0,0,1,.4-4A4.51,4.51,0,0,1,11,7.52a6.25,6.25,0,0,1,.74-.21A5.32,5.32,0,0,1,13,7.17Z"/><path class="cls-2" d="M18.08,17.63a3.2,3.2,0,0,1-2.91-1.72,6,6,0,0,1-.58-1.47A5.52,5.52,0,0,0,14.08,13a.87.87,0,0,0-1.24-.33.74.74,0,0,0-.33.63,4.86,4.86,0,0,0,.09,1.47,6.57,6.57,0,0,0,1.19,2.81,4.7,4.7,0,0,0,3.73,1.87,2.42,2.42,0,0,0,.47-.05.37.37,0,0,1,.45.28.35.35,0,0,1-.36.38,5,5,0,0,1-2.25-.24,5.63,5.63,0,0,1-2.75-2.1,7.18,7.18,0,0,1-1-2.17,6.58,6.58,0,0,1-.3-2,1.73,1.73,0,0,1,.51-1.33,1.48,1.48,0,0,1,2.28.36,4.39,4.39,0,0,1,.49,1.21A6,6,0,0,0,16,16a2.42,2.42,0,0,0,2.18.92,4.69,4.69,0,0,0,1.42-.39.54.54,0,0,1,.25-.06.33.33,0,0,1,.32.26c.05.14-.05.25-.17.32a4.84,4.84,0,0,1-1.22.45A2,2,0,0,1,18.08,17.63Z"/><path class="cls-2" d="M17.88,18.8a4.24,4.24,0,0,1-3.76-2,5.76,5.76,0,0,1-1-2.56A4.8,4.8,0,0,1,13,13.6c0-.24.12-.41.29-.42s.32.13.36.35A12.12,12.12,0,0,0,14,14.89,4.81,4.81,0,0,0,15.4,17.3a3.44,3.44,0,0,0,1.58.77,4.53,4.53,0,0,0,1.87,0h.21a.33.33,0,0,1,.37.27c0,.21-.09.31-.27.37a4.27,4.27,0,0,1-.8.1Z"/><path class="cls-2" d="M14.24,4.78A6.75,6.75,0,0,1,18,6.26l.39.35a.3.3,0,0,1,.06.44.32.32,0,0,1-.47,0c-.23-.17-.43-.37-.66-.54a5.27,5.27,0,0,0-2.18-1l-1-.21A.3.3,0,0,1,13.94,5,.29.29,0,0,1,14.24,4.78Z"/></g></g></svg>