<svg xmlns="http://www.w3.org/2000/svg" viewBox="0 0 26.89 26.89"><defs><style>.cls-1{fill:#ee2a7b;stroke:#ee2a7b;stroke-miterlimit:10;stroke-width:0.25px;}.cls-2{fill:#fff;}</style></defs><g id="Layer_2" data-name="Layer 2"><g id="Layer_1-2" data-name="Layer 1"><circle class="cls-1" cx="13.45" cy="13.45" r="13.32"/><path class="cls-2" d="M13.73,22c-.12,0-.14-.07-.16-.16-.07-.4-.15-.8-.22-1.2s0-.28-.33-.24-.28,0-.33-.23-.06-.27-.34-.22-.28,0-.33-.24-.09-.42-.12-.63-.08-.21-.23-.16l-.16,0c-.14,0-.21,0-.24-.16s-.09-.47-.13-.71-.09-.21-.25-.18c-.43.09-.35,0-.42-.3,0-.19-.08-.38-.11-.57s-.07-.19-.21-.14h-.08c-.29,0-.3,0-.35-.25s-.09-.26-.29-.21-.32.06-.38-.25-.07-.44-.12-.67,0-.21.17-.23h.08c.26-.05.26-.05.21-.33s0-.28.24-.33l1.22-.24c.16,0,.25,0,.26.18v0c.05.29.22.36.49.22.09-.05.05-.13,0-.2l-.27-1.44c-.23-1.23-.45-2.46-.68-3.69,0-.26,0-.26.23-.32l.12,0c.12,0,.16-.08.13-.2-.08-.39-.15-.38.32-.47.19,0,.39-.06.59-.11s.2,0,.21.15l0,.12c0,.2.1.26.31.21s.3,0,.35.25c.11.57.22,1.15.32,1.72,0,.17.09.21.25.17l.71-.13c.14,0,.21,0,.24.16.07.36.08.36.43.29s.72-.12,1.07-.2c.17,0,.25,0,.28.19.06.33.07.33.4.27l.57-.11c.15,0,.23,0,.25.17l0,.17c0,.13.07.19.22.15l.06,0c.3,0,.3,0,.36.24s.06.26.32.22.3-.06.35.24c.25,1.33.49,2.66.74,4,0,.19,0,.26-.2.29s-.31.05-.26.36.14.78.22,1.16c0,.14,0,.21-.16.24-.36.08-.35.08-.29.45l.3,1.64c0,.14,0,.22-.15.25L13.8,22Zm.23-7.7s0,.07,0,.09-.32.11-.48.13-.12-.12-.14-.2c-.13-.71-.26-1.42-.4-2.13-.18-1-.37-2-.55-3,0-.17-.1-.23-.28-.19a6,6,0,0,1-.61.11c-.17,0-.23.07-.19.26.11.55.21,1.11.31,1.66q.53,2.87,1.06,5.72c0,.18,0,.26-.19.28l-.14,0c-.17.05-.25,0-.27-.19-.07-.39-.15-.77-.22-1.16s0-.28-.33-.23-.27,0-.33-.24c0,0,0-.05,0-.08S11.09,15,11,15l-1.28.24c-.13,0-.17.08-.14.21s.07.37.1.55c.06.33.06.34.39.27s.26,0,.29.21,0,.3.37.25h.08c.12,0,.18,0,.2.14s.06.38.1.57c.08.42,0,.38.43.31.14,0,.2,0,.23.15s.1.47.13.71.1.22.25.18l.17,0c.13,0,.2,0,.22.15s.08.45.12.67,0,.26.31.21.31-.05.35.25.11.28.31.21l.1,0c.15,0,.22,0,.25.17s.09.46.12.69.09.22.25.18l4-.74c.17,0,.21-.1.17-.27-.08-.39-.14-.79-.22-1.19,0-.19,0-.29.2-.3l.1,0c.16,0,.21-.1.18-.26-.08-.37-.15-.75-.22-1.13s-.07-.33.25-.38.24-.11.2-.31c-.24-1.27-.48-2.55-.71-3.83-.06-.33-.06-.34-.38-.28s-.26,0-.29-.2-.07-.33-.4-.25c-.12,0-.16.08-.14.2.08.38.14.77.22,1.16s.07.37-.3.42h0c-.16,0-.23,0-.26-.18-.11-.61-.23-1.21-.34-1.81,0-.15-.08-.22-.25-.18a5.13,5.13,0,0,1-.66.13c-.16,0-.19.1-.16.24.11.56.21,1.11.31,1.66.06.38.06.37-.32.45-.17,0-.24,0-.27-.18-.05-.32-.11-.63-.17-.94-.08-.48-.17-1-.26-1.44,0-.09,0-.2-.17-.17l-.77.13c-.13,0-.16.1-.13.21l.09.53C13.71,13,13.83,13.66,14,14.32Z"/><path class="cls-2" d="M12,6.16v.68c0,.15-.06.21-.21.21h-.18c-.16,0-.24-.06-.24-.23q0-.66,0-1.32c0-.17.08-.24.24-.22h.18c.15,0,.22,0,.21.2Z"/><path class="cls-2" d="M10.32,7.47a1.2,1.2,0,0,1-.34.37c-.1.08-.16,0-.21-.1l-.94-.93c-.11-.11-.1-.18,0-.29.29-.3.28-.3.58,0l.8.81A.35.35,0,0,1,10.32,7.47Z"/><path class="cls-2" d="M10.32,11.08a.2.2,0,0,1-.08.14l-1,1c-.1.1-.17.1-.27,0-.35-.36-.32-.28,0-.59s.52-.51.77-.78.24-.14.36,0S10.28,11,10.32,11.08Z"/><path class="cls-2" d="M14.74,6.66c0,.06,0,.09-.07.13l-1,1c-.1.1-.18.09-.26,0h0c-.29-.35-.35-.23,0-.58s.53-.52.79-.79.22-.13.33,0S14.69,6.56,14.74,6.66Z"/><path class="cls-2" d="M14.87,9h.7c.12,0,.18,0,.18.17v0c0,.39,0,.39-.37.39H14.21c-.17,0-.25-.06-.24-.23a.54.54,0,0,0,0-.18C14,9,14,9,14.17,9Z"/><path class="cls-2" d="M8.61,9h.7c.12,0,.18,0,.17.17v.06c0,.37,0,.37-.35.37s-.75,0-1.13,0c-.22,0-.29-.08-.27-.28a.24.24,0,0,0,0-.12C7.72,9,7.78,9,8,9Z"/></g></g></svg>