<svg xmlns="http://www.w3.org/2000/svg" viewBox="0 0 26.89 26.89"><defs><style>.cls-1{fill:#ee2a7b;stroke:#ee2a7b;stroke-miterlimit:10;stroke-width:0.25px;}.cls-2{fill:#fff;}</style></defs><g id="Layer_2" data-name="Layer 2"><g id="Layer_1-2" data-name="Layer 1"><circle class="cls-1" cx="13.45" cy="13.45" r="13.32"/><path class="cls-2" d="M13.36,20.29H8.76c-.34,0-.41-.07-.41-.42q0-4,0-8c0-.27,0-.27-.27-.27H6.2c-.27,0-.34-.06-.38-.33-.13-.94-.26-1.89-.38-2.83,0-.31,0-.37.32-.44L10.63,7A.66.66,0,0,1,11,7a6,6,0,0,0,4.29.14,2.22,2.22,0,0,1,1.3-.07c1.45.34,2.91.64,4.36,1,.31.07.36.14.32.46l-.24,1.73c-.05.37-.09.74-.15,1.11s-.11.29-.35.3H18.67c-.29,0-.29,0-.29.28v7.94c0,.39-.06.45-.44.45Zm0-.5H17.6c.26,0,.27,0,.27-.27v-8c0-.31.07-.38.37-.38h2c.15,0,.21,0,.23-.21.1-.74.2-1.49.31-2.23,0-.14,0-.19-.14-.22l-4.28-.94c-.14,0-.19,0-.22.15a2.3,2.3,0,0,1-.66,1.11,3,3,0,0,1-2.65.75,2.58,2.58,0,0,1-2.19-1.9c0-.14-.12-.13-.22-.1l-4.26.93C6,8.48,6,8.54,6,8.68l.3,2.19c0,.25,0,.25.3.25H8.53c.21,0,.3.08.33.26a1.61,1.61,0,0,1,0,.22v7.94c0,.25,0,.25.24.25Zm0-10.69.39,0a2.27,2.27,0,0,0,1.74-1.19c0-.07.12-.16.06-.23s-.16,0-.24,0a6.34,6.34,0,0,1-3.06.19,6.26,6.26,0,0,1-.95-.23s-.08,0-.12,0,0,.09,0,.13l.05.1A2.4,2.4,0,0,0,13.36,9.1Z"/></g></g></svg>